<?xml version="1.0" encoding="UTF-8" standalone="no"?>
<!-- Created with Inkscape (http://www.inkscape.org/) -->

<svg
   xmlns:dc="http://purl.org/dc/elements/1.1/"
   xmlns:cc="http://creativecommons.org/ns#"
   xmlns:rdf="http://www.w3.org/1999/02/22-rdf-syntax-ns#"
   xmlns:svg="http://www.w3.org/2000/svg"
   xmlns="http://www.w3.org/2000/svg"
   xmlns:sodipodi="http://sodipodi.sourceforge.net/DTD/sodipodi-0.dtd"
   xmlns:inkscape="http://www.inkscape.org/namespaces/inkscape"
   width="512"
   height="512"
   id="svg2"
   version="1.1"
   inkscape:version="0.48.4 r9939"
   sodipodi:docname="ic_launcher.svg">
  <defs
     id="defs4" />
  <sodipodi:namedview
     id="base"
     pagecolor="#c0c0c0"
     bordercolor="#666666"
     borderopacity="1.0"
     inkscape:pageopacity="1"
     inkscape:pageshadow="2"
     inkscape:zoom="1.0455313"
     inkscape:cx="201.97218"
     inkscape:cy="257.48514"
     inkscape:document-units="px"
     inkscape:current-layer="layer1"
     showgrid="false"
     inkscape:window-width="970"
     inkscape:window-height="784"
     inkscape:window-x="0"
     inkscape:window-y="0"
     inkscape:window-maximized="0"
     inkscape:snap-bbox="true"
     inkscape:bbox-nodes="false"
     inkscape:snap-bbox-edge-midpoints="false"
     inkscape:bbox-paths="true"
     showguides="true"
     inkscape:guide-bbox="true"
     inkscape:snap-global="true"
     inkscape:object-paths="false"
     inkscape:object-nodes="false"
     inkscape:snap-smooth-nodes="true">
    <sodipodi:guide
       orientation="1,0"
       position="10.125,480.04967"
       id="guide3094" />
    <sodipodi:guide
       orientation="1,0"
       position="305.3125,477.61217"
       id="guide3096" />
    <sodipodi:guide
       orientation="1,0"
       position="499.0286,474.63909"
       id="guide3098" />
    <sodipodi:guide
       orientation="1,0"
       position="280.00119,18.357247"
       id="guide3100" />
    <sodipodi:guide
       orientation="1,0"
       position="192.00765,31.659045"
       id="guide3102" />
    <sodipodi:guide
       orientation="0,1"
       position="192.00765,18.650805"
       id="guide3104" />
  </sodipodi:namedview>
  <metadata
     id="metadata7">
    <rdf:RDF>
      <cc:Work
         rdf:about="">
        <dc:format>image/svg+xml</dc:format>
        <dc:type
           rdf:resource="http://purl.org/dc/dcmitype/StillImage" />
        <dc:title />
      </cc:Work>
    </rdf:RDF>
  </metadata>
  <g
     inkscape:label="Layer 1"
     inkscape:groupmode="layer"
     id="layer1"
     transform="translate(0,-540.36217)">
    <path
       style="font-size:677.76702881px;font-style:normal;font-variant:normal;font-weight:normal;font-stretch:normal;text-align:start;line-height:125%;letter-spacing:0px;word-spacing:0px;writing-mode:lr-tb;text-anchor:start;fill:#ffffff;fill-opacity:1;stroke:none;font-family:FreeSerif;-inkscape-font-specification:FreeSerif"
       d="m 229.62692,555.85221 c -76.32137,0.64464 -218.093754,0.3125 -218.093754,0.3125 0,0 0,9.62392 0,19.03125 0,9.40733 1.872902,23.41002 13.3125,25.3125 10.135601,2.03757 20.954418,0.64094 30.296635,5.95056 26.045623,11.61018 40.309984,38.08245 57.398269,59.48916 31.76191,43.25724 60.46459,88.87485 91.08635,133.02903 -46.54663,56.85883 -91.14186,115.46748 -140.251797,170.01857 -7.519848,8.12965 -15.196431,17.20222 -26.466957,19.76268 -9.922659,3.38089 -25.375,4.80302 -25.375,4.80302 l 0,43.03342 181.882654,-0.024 c 0,0 0,-7.7248 0,-17.3437 0,-9.6189 -1.48465,-24.55839 -13.32015,-26.59384 -12.42688,-3.7311 -26.80483,0.1352 -37.84375,-7.46875 0.19687,-10.33585 9.59681,-17.19475 13.91843,-26.01278 26.02716,-37.07157 56.89272,-70.39156 84.20657,-106.58097 28.40395,43.89256 62.18432,84.83277 83.90625,132.625 -3.4745,2.86553 -9.06372,2.32883 -13.3125,3.8125 -12.79869,2.50209 -13.52768,3.26122 -22.38792,7.44415 -8.86024,4.18299 -7.17339,12.15189 -7.17339,20.40589 0,8.254 0,20.0299 0,20.0299 67.81972,0 140.54307,0.1196 219.02741,-0.3571 0,0 0,-12.7501 0,-22.804 0,-10.0539 1.035,-20.38891 -9.03961,-21.07526 -16.25393,-2.93306 -34.52336,-6.15391 -45.11399,-19.95598 -14.27367,-16.65209 -26.18478,-35.2603 -39.07778,-53.14756 -34.11235,-48.99738 -68.65344,-97.79189 -102.95347,-146.69619 43.08315,-51.76017 81.93738,-107.58372 129.3125,-155.34375 18.89857,-15.31315 66.87235,-17.3125 66.87235,-17.3125 0,0 -1.05247,-35.08245 -5.18485,-39.125 -11.96793,-8.19862 -27.21325,-3.59148 -40.71873,-4.82479 -54.28444,-0.0373 -147.81252,0.20868 -147.81252,0.20868 0,0 -0.12441,10.66041 0,21.17861 0,7.81681 3.25566,21.31592 13.75,22.6875 10.83772,3.53282 24.01887,-0.63855 33.46875,6.34375 -0.72169,8.3746 -7.89064,14.2015 -11.80978,21.20505 -23.05321,32.02363 -49.69191,61.61081 -74.72147,92.29495 -24.55021,-35.18204 -52.6374,-68.95317 -68.90625,-108.9375 -1.92509,-2.78456 -2.88437,-7.23431 1.46875,-8.09375 13.48751,-4.18865 29.96857,3.07404 41.84375,-6.5 9.62371,-9.39992 10.04565,-27.82308 -0.25,-36.84375 -3.30924,-2.68048 -7.64076,-4.20122 -11.9375,-3.9375 z"
       id="text2988-6"
       inkscape:connector-curvature="0"
       sodipodi:nodetypes="cczccccccccczcccccczzcczccccccccccccccccccc" />
    <path
       style="fill:#ffffff;fill-opacity:1;stroke:none"
       d="m 254.06179,596.83731 c -21.8563,0.34694 -43.7622,6.15334 -62.63587,17.04867 -27.03189,-4.29697 -54.07518,-8.53101 -81.04942,-13.17736 9.29684,25.02567 18.84765,49.95969 28.38964,74.89503 -4.30822,11.47866 -5.81802,23.86082 -6.60109,35.95854 -0.0512,1.75807 -3.58644,-1.72765 -5.01285,-1.73713 -17.11458,-7.35253 -38.939182,-2.67692 -50.103732,12.53215 -8.383375,10.09788 -11.142292,23.94705 -8.79977,36.7771 0.72386,37.17868 -2.215233,74.53569 2.000155,111.57362 7.965646,24.25595 40.351707,34.55616 61.941017,22.08633 0,10.54684 0,21.09366 0,31.64054 11.75191,1.67615 23.63938,-0.49243 35.41258,0.74448 -0.49795,18.62503 -2.77532,39.7081 9.05788,55.5633 15.65706,19.51572 50.05056,20.83322 65.42057,0.2777 12.12959,-14.5962 10.6244,-35.0729 9.79707,-52.9127 -0.15601,-1.39185 -0.9331,-4.13845 1.43933,-3.07719 2.39193,0.0635 4.7912,-0.45623 7.17186,-0.12405 -0.63325,18.27093 -2.48241,39.14564 9.61417,54.33834 15.99047,19.44261 50.73624,19.89451 65.57865,-1.18219 11.43013,-14.5969 9.92621,-34.48712 9.05788,-51.98982 0.72205,-2.87765 8.09956,-0.18193 11.14243,-1.11669 8.04042,0 16.08084,0 24.12126,0 0,-10.91908 0,-21.83821 0,-32.7573 17.48754,10.10446 42.81963,7.25556 55.21585,-9.40531 11.03081,-13.9544 9.74596,-33.02206 8.59198,-49.83067 -0.41564,-33.63526 2.66913,-67.61815 -2.58648,-100.97684 -8.99812,-22.81147 -39.91482,-32.67066 -60.77466,-20.12586 -0.0567,-12.69287 -2.19812,-25.39553 -6.57627,-37.29863 9.36248,-24.57448 18.70482,-49.15675 27.94294,-73.7783 -26.76933,4.46451 -53.57152,8.72805 -80.37938,12.95401 -20.37522,-11.49693 -43.91254,-17.37845 -67.37574,-16.89977 z"
       id="path3023-3"
       inkscape:connector-curvature="0" />
    <text
       xml:space="preserve"
       style="font-size:677.76702881px;font-style:normal;font-variant:normal;font-weight:normal;font-stretch:normal;text-align:start;line-height:125%;letter-spacing:0px;word-spacing:0px;writing-mode:lr-tb;text-anchor:start;fill:#000000;fill-opacity:1;stroke:none;font-family:FreeSerif;-inkscape-font-specification:FreeSerif"
       x="14.03717"
       y="1020.7031"
       id="text2988"
       sodipodi:linespacing="125%"><tspan
         sodipodi:role="line"
         id="tspan2990"
         x="14.03717"
         y="1020.7031">X</tspan></text>
    <g
       id="g4014"
       transform="matrix(0.79411557,0,0,0.79411557,52.778311,156.73599)"
       style="stroke:none">
      <path
         transform="translate(0,540.36217)"
         id="path3023"
         d="m 256.5,37.78125 c -28.75234,0 -55.38318,8.360946 -77.0625,22.5625 L 109.625,49.15625 134.03125,113.0625 C 127.89386,126.92366 124.5,142.04582 124.5,157.90625 l 264,0 c 0,-16.32165 -3.58203,-31.87543 -10.0625,-46.0625 l 23.9375,-62.6875 -69.03125,11.0625 C 311.69876,46.091984 285.16915,37.78125 256.5,37.78125 z"
         style="fill:#ff0000;fill-opacity:1;stroke:#000000;stroke-width:12;stroke-linecap:butt;stroke-linejoin:miter;stroke-miterlimit:4;stroke-opacity:1;stroke-dasharray:none;stroke-dashoffset:0"
         inkscape:connector-curvature="0" />
      <path
         transform="translate(0,540.36217)"
         id="rect3027"
         d="m 123.96875,176 0,227 44.34375,0 0,60.40625 c 0,16.1644 13.02313,29.15625 29.1875,29.15625 16.16437,0 29.1875,-12.99185 29.1875,-29.15625 l 0,-60.40625 58.625,0 0,57.8125 c 0,16.1644 13.02313,29.1875 29.1875,29.1875 16.16437,0 29.1875,-13.0231 29.1875,-29.1875 l 0,-57.8125 44.34375,0 0,-227 -264.0625,0 z"
         style="fill:#a4c739;fill-opacity:1;stroke:#000000;stroke-width:12;stroke-linecap:butt;stroke-linejoin:miter;stroke-miterlimit:4;stroke-opacity:1;stroke-dasharray:none;stroke-dashoffset:0"
         inkscape:connector-curvature="0" />
      <rect
         ry="26.236914"
         rx="29.177563"
         y="716.36218"
         x="43.337311"
         height="193.14835"
         width="58.355125"
         id="rect3029"
         style="fill:#a4c739;fill-opacity:1;stroke:#000000;stroke-width:12;stroke-miterlimit:4;stroke-opacity:1;stroke-dasharray:none" />
      <rect
         ry="26.236914"
         rx="29.177563"
         y="716.36218"
         x="410.30756"
         height="193.14835"
         width="58.355125"
         id="rect3029-3"
         style="fill:#a4c739;fill-opacity:1;stroke:#000000;stroke-width:12;stroke-miterlimit:4;stroke-opacity:1;stroke-dasharray:none" />
    </g>
  </g>
</svg>
